<svg width="32" height="32" viewBox="0 0 32 32" fill="none" xmlns="http://www.w3.org/2000/svg">
  <rect width="32" height="32" rx="4" fill="#3884B1"/>
  <path d="M7 7H17C17.5523 7 18 7.44772 18 8V11C18 11.5523 17.5523 12 17 12H10V15H16C16.5523 15 17 15.4477 17 16V19C17 19.5523 16.5523 20 16 20H10V24C10 24.5523 9.55228 25 9 25H7C6.44772 25 6 24.5523 6 24V8C6 7.44772 6.44772 7 7 7Z" fill="#D9232D"/>
  <path d="M20 9C20 7.89543 20.8954 7 22 7C23.1046 7 24 7.89543 24 9V22.5C24 23.8807 22.8807 25 21.5 25H19V23H21V9Z" fill="white"/>
</svg>